<svg width="24" height="25" viewBox="0 0 24 25" fill="none" xmlns="http://www.w3.org/2000/svg">
  <path fill-rule="evenodd" clip-rule="evenodd"
    d="M15.9202 13.2988C15.9725 13.0407 16 12.7736 16 12.5C16 10.2909 14.2091 8.5 12 8.5C11.7264 8.5 11.4593 8.52746 11.2012 8.57977L15.9202 13.2988ZM8.66676 10.288C8.24547 10.9216 8 11.6821 8 12.5C8 14.7091 9.79086 16.5 12 16.5C12.8179 16.5 13.5784 16.2545 14.212 15.8332L12.7381 14.3594C12.5098 14.4501 12.2607 14.5 12 14.5C10.8954 14.5 10 13.6046 10 12.5C10 12.2393 10.0499 11.9902 10.1406 11.7619L8.66676 10.288Z"
    fill="#CCD2E3" />
  <path fill-rule="evenodd" clip-rule="evenodd"
    d="M16.5191 18.1405L15.0499 16.6712C14.0776 17.1805 13.0477 17.5 12 17.5C10.4742 17.5 8.98616 16.8224 7.65914 15.8677C6.34002 14.9186 5.26409 13.7558 4.58386 12.93C4.48409 12.8088 4.40958 12.7182 4.34785 12.6385C4.29899 12.5754 4.26786 12.5315 4.24756 12.5C4.26786 12.4685 4.29899 12.4246 4.34785 12.3615C4.40958 12.2818 4.48409 12.1912 4.58386 12.07C5.24928 11.2622 6.29335 10.1319 7.57331 9.19463L6.14458 7.7659C4.79643 8.79616 3.72247 9.97005 3.04009 10.7985C3.01651 10.8272 2.99192 10.8566 2.96662 10.8869L2.96661 10.8869C2.65318 11.2624 2.22974 11.7696 2.22974 12.5C2.22974 13.2304 2.65318 13.7376 2.9666 14.1131L2.96682 14.1133C2.99205 14.1435 3.01657 14.1729 3.04009 14.2015C3.77996 15.0998 4.98018 16.4041 6.49111 17.4912C7.99416 18.5725 9.89008 19.5 12 19.5C13.67 19.5 15.206 18.919 16.5191 18.1405ZM8.80682 6.1855C9.79062 5.76871 10.8643 5.5 12 5.5C14.1099 5.5 16.0059 6.42747 17.5089 7.50885C19.0198 8.5959 20.2201 9.90025 20.9599 10.7985C20.9835 10.8272 21.0081 10.8566 21.0334 10.8869L21.0334 10.8869C21.3468 11.2624 21.7703 11.7696 21.7703 12.5C21.7703 13.2304 21.3468 13.7376 21.0334 14.1131C21.0081 14.1434 20.9835 14.1728 20.9599 14.2015C20.4733 14.7923 19.7874 15.5589 18.945 16.3237L17.529 14.9077C18.3089 14.208 18.9539 13.4912 19.4162 12.93C19.5159 12.8088 19.5904 12.7182 19.6522 12.6385C19.701 12.5754 19.7322 12.5315 19.7525 12.5C19.7322 12.4685 19.701 12.4246 19.6522 12.3615C19.5904 12.2818 19.5159 12.1912 19.4162 12.07C18.7359 11.2442 17.66 10.0814 16.3409 9.13233C15.0139 8.1776 13.5258 7.5 12 7.5C11.449 7.5 10.9029 7.58837 10.3676 7.74624L8.80682 6.1855Z"
    fill="#CCD2E3" />
  <path d="M5 2.5L21 18.5" stroke="#CCD2E3" stroke-width="2" />
</svg>
