<svg width="16" height="17" viewBox="0 0 16 17" fill="none" xmlns="http://www.w3.org/2000/svg">
  <path fill-rule="evenodd" clip-rule="evenodd"
    d="M8 3.9231C8.41421 3.9231 8.75 4.25888 8.75 4.6731L8.75 12.6731C8.75 13.0873 8.41421 13.4231 8 13.4231C7.58579 13.4231 7.25 13.0873 7.25 12.6731L7.25 4.6731C7.25 4.25888 7.58579 3.9231 8 3.9231Z"
    fill="#1D1D35" />
  <path fill-rule="evenodd" clip-rule="evenodd"
    d="M12.75 8.6731C12.75 9.08731 12.4142 9.4231 12 9.4231L4 9.4231C3.58579 9.4231 3.25 9.08731 3.25 8.6731C3.25 8.25888 3.58579 7.9231 4 7.9231L12 7.9231C12.4142 7.9231 12.75 8.25888 12.75 8.6731Z"
    fill="#1D1D35" />
</svg>
