<svg width="25" height="24" viewBox="0 0 25 24" fill="none" xmlns="http://www.w3.org/2000/svg">
<path d="M13.237 3H9.06543C7.17981 3 6.237 3 5.65122 3.58579C5.06543 4.17157 5.06543 5.11438 5.06543 7V17C5.06543 18.8856 5.06543 19.8284 5.65122 20.4142C6.237 21 7.17981 21 9.06543 21H15.0654C16.951 21 17.8939 21 18.4796 20.4142C19.0654 19.8284 19.0654 18.8856 19.0654 17V8.82843C19.0654 8.41968 19.0654 8.2153 18.9893 8.03153C18.9132 7.84776 18.7687 7.70324 18.4796 7.41421L14.6512 3.58579C14.3622 3.29676 14.2177 3.15224 14.0339 3.07612C13.8501 3 13.6458 3 13.237 3Z" stroke="#CCD2E3" stroke-width="2"/>
<path d="M9.06543 13L15.0654 13" stroke="#CCD2E3" stroke-width="2" stroke-linecap="round"/>
<path d="M9.06543 17L13.0654 17" stroke="#CCD2E3" stroke-width="2" stroke-linecap="round"/>
<path d="M13.0654 3V7C13.0654 7.94281 13.0654 8.41421 13.3583 8.70711C13.6512 9 14.1226 9 15.0654 9H19.0654" stroke="#CCD2E3" stroke-width="2"/>
</svg>
