<svg width="17" height="19" viewBox="0 0 17 19" fill="none" xmlns="http://www.w3.org/2000/svg">
<path d="M8.83212 17.6486L9.29255 18.5363L9.29255 18.5363L8.83212 17.6486ZM8.03604 17.6486L7.57561 18.5363L7.57561 18.5363L8.03604 17.6486ZM14.4341 8.8446C14.4341 10.9904 13.342 12.7605 11.9791 14.1352C10.6171 15.509 9.06828 16.3996 8.37169 16.7609L9.29255 18.5363C10.0789 18.1284 11.8311 17.1252 13.3993 15.5433C14.9667 13.9624 16.4341 11.7152 16.4341 8.8446H14.4341ZM8.43408 2.8446C11.7478 2.8446 14.4341 5.5309 14.4341 8.8446H16.4341C16.4341 4.42633 12.8524 0.844604 8.43408 0.844604V2.8446ZM2.43408 8.8446C2.43408 5.5309 5.12037 2.8446 8.43408 2.8446V0.844604C4.0158 0.844604 0.434082 4.42633 0.434082 8.8446H2.43408ZM8.49648 16.7609C7.79989 16.3996 6.2511 15.509 4.88911 14.1352C3.52619 12.7605 2.43408 10.9904 2.43408 8.8446H0.434082C0.434082 11.7152 1.90149 13.9624 3.46882 15.5433C5.03707 17.1252 6.78927 18.1284 7.57561 18.5363L8.49648 16.7609ZM8.37169 16.7609C8.38547 16.7537 8.40734 16.7469 8.43408 16.7469C8.46082 16.7469 8.48269 16.7537 8.49648 16.7609L7.57561 18.5363C8.11717 18.8172 8.751 18.8172 9.29255 18.5363L8.37169 16.7609ZM10.4341 8.8446C10.4341 9.94917 9.53865 10.8446 8.43408 10.8446V12.8446C10.6432 12.8446 12.4341 11.0537 12.4341 8.8446H10.4341ZM8.43408 6.8446C9.53865 6.8446 10.4341 7.74004 10.4341 8.8446H12.4341C12.4341 6.63547 10.6432 4.8446 8.43408 4.8446V6.8446ZM6.43408 8.8446C6.43408 7.74004 7.32951 6.8446 8.43408 6.8446V4.8446C6.22494 4.8446 4.43408 6.63547 4.43408 8.8446H6.43408ZM8.43408 10.8446C7.32951 10.8446 6.43408 9.94917 6.43408 8.8446H4.43408C4.43408 11.0537 6.22494 12.8446 8.43408 12.8446V10.8446Z" fill="#CCD2E3"/>
</svg>
