<svg width="25" height="25" viewBox="0 0 25 25" fill="none" xmlns="http://www.w3.org/2000/svg">
<path fill-rule="evenodd" clip-rule="evenodd" d="M15.4257 2.50133C14.6647 2.19535 13.8354 2.02771 12.9704 2.02771C9.61431 2.02771 6.79494 4.55116 6.42433 7.8867L6.17253 10.1529L6.16648 10.207C6.05365 11.1902 5.73361 12.1383 5.22748 12.9888L5.19953 13.0355L4.6215 13.9988L4.59735 14.0391C4.35583 14.4416 4.13701 14.8062 3.99126 15.1157C3.84314 15.4302 3.68477 15.8563 3.761 16.3394C3.83635 16.817 4.08213 17.2511 4.45285 17.5614C4.82792 17.8753 5.2748 17.9587 5.62069 17.9935C5.96106 18.0278 6.38631 18.0278 6.8557 18.0277L6.9026 18.0277H19.0381L19.085 18.0277C19.5544 18.0278 19.9797 18.0278 20.3201 17.9935C20.6659 17.9587 21.1128 17.8753 21.4879 17.5614C21.8586 17.2511 22.1044 16.817 22.1797 16.3394C22.256 15.8563 22.0976 15.4302 21.9495 15.1157C21.8037 14.8062 21.5849 14.4415 21.3434 14.0391L21.3192 13.9988L20.7412 13.0355L20.7133 12.9888C20.3345 12.3524 20.06 11.6613 19.8985 10.9417C19.5978 10.9982 19.2875 11.0277 18.9704 11.0277C18.5864 11.0277 18.2126 10.9844 17.8534 10.9025C18.038 11.9992 18.4244 13.0536 18.9946 14.0116L19.0262 14.0644L19.6043 15.0278C19.8778 15.4837 20.0426 15.7607 20.1401 15.9678C20.1454 15.9791 20.1503 15.9898 20.1548 15.9998C20.144 16.001 20.1323 16.0023 20.1199 16.0036C19.8921 16.0265 19.5697 16.0277 19.0381 16.0277H6.9026C6.37101 16.0277 6.04863 16.0265 5.82089 16.0036C5.80843 16.0023 5.79679 16.001 5.78592 15.9998C5.79041 15.9898 5.7953 15.9791 5.80063 15.9678C5.89816 15.7607 6.06298 15.4837 6.33648 15.0278L6.91452 14.0644L6.94615 14.0116C7.59689 12.9181 8.00837 11.6991 8.15344 10.435L8.16029 10.3738L8.4121 8.10756C8.67017 5.78489 10.6334 4.02771 12.9704 4.02771C13.4334 4.02771 13.8817 4.09669 14.3051 4.22538C14.557 3.57365 14.9416 2.98794 15.4257 2.50133ZM17.9525 4.30575C17.3646 4.65403 16.9704 5.29484 16.9704 6.02771C16.9704 6.17274 16.9858 6.31416 17.0151 6.45043C17.1355 6.67531 17.2379 6.91175 17.3201 7.15792C17.6805 7.68318 18.2852 8.02771 18.9704 8.02771C19.1622 8.02771 19.3478 8.00069 19.5235 7.95025L19.5164 7.8867C19.3642 6.51646 18.7987 5.28326 17.9525 4.30575Z" fill="#C9D5E0"/>
<path d="M10.0729 17.6924C10.2439 18.6492 10.6205 19.4948 11.1444 20.0978C11.6684 20.7008 12.3103 21.0277 12.9707 21.0277C13.6311 21.0277 14.2731 20.7008 14.797 20.0978C15.3209 19.4948 15.6976 18.6492 15.8685 17.6924" stroke="#C9D5E0" stroke-width="2" stroke-linecap="round"/>
<circle cx="18.9707" cy="6.02771" r="2.5" fill="#3751FF" stroke="#3751FF"/>
</svg>
